<svg xmlns="http://www.w3.org/2000/svg" version="1.1" xmlns:xlink="http://www.w3.org/1999/xlink" xmlns:svgjs="http://svgjs.dev/svgjs" width="1500" height="1500" viewBox="0 0 1500 1500"><rect width="1500" height="1500" fill="#ffffff"></rect><g transform="matrix(0.6666666666666666,0,0,0.6666666666666666,248.71217292377702,197.22258064516126)"><svg viewBox="0 0 225 248" data-background-color="#ca3433" preserveAspectRatio="xMidYMid meet" height="1653" width="1500" xmlns="http://www.w3.org/2000/svg" xmlns:xlink="http://www.w3.org/1999/xlink"><g id="tight-bounds" transform="matrix(1,0,0,1,0.2897610921501723,0.4000000000000057)"><svg viewBox="0 0 224.42047781569966 247.2" height="247.2" width="224.42047781569966"><g><svg viewBox="0 0 224.42047781569966 247.2" height="247.2" width="224.42047781569966"><g><svg viewBox="0 0 224.42047781569966 247.2" height="247.2" width="224.42047781569966"><g id="textblocktransform"><svg viewBox="0 0 224.42047781569966 247.2" height="247.2" width="224.42047781569966" id="textblock"><g><svg viewBox="0 0 224.42047781569966 247.2" height="247.2" width="224.42047781569966"><g transform="matrix(1,0,0,1,0,0)"><svg width="224.42047781569966" viewBox="-1.0000000000000002 -29.3 26.600000000000005 29.3" height="247.2" data-palette-color="#f7e1e1"><path d="M23.6-13.95L25.6-13.95Q25.6-12.83 25.6-11.35 25.6-9.88 25.6-8.31 25.6-6.75 25.6-5.28 25.6-3.8 25.6-2.6 25.6-1.4 25.6-0.7 25.6 0 25.6 0L25.6 0Q25.6 0 25.6 0 25.6 0 25.6 0 25.6 0 25.6 0 25.6 0 25.6 0L25.6 0Q25.6 0 24.61 0 23.63 0 22.09 0 20.55 0 18.8 0 17.05 0 15.51 0 13.98 0 12.99 0 12 0 12 0L12 0Q12 0 12 0 12 0 12 0L12 0Q12 0 12 0 12 0 12 0 12 0 12 0L12 0Q12-0.5 12-1.01 12-1.53 12-2L12-2Q12.13-2 12.83-2 13.53-2 14.54-2 15.55-2 16.59-2 17.63-2 18.44-2 19.25-2 19.55-2L19.55-2Q19.55-2 19.55-2 19.55-2 19.55-2 19.55-2 19.55-2 19.55-2 19.55-2L19.55-2Q19.63-2 20.05-2.38 20.48-2.75 21.08-3.33 21.68-3.9 22.25-4.49 22.83-5.08 23.21-5.5 23.6-5.93 23.6-6L23.6-6 23.6-13.95ZM1-15.35L-1-15.35Q-1-16.5-1-17.95-1-19.4-1-20.98-1-22.55-1-24.03-1-25.5-1-26.7-1-27.9-1-28.6-1-29.3-1-29.3L-1-29.3Q-1-29.3-1-29.3-1-29.3-1-29.3-1-29.3-1-29.3-1-29.3-1-29.3L-1-29.3Q-1-29.3-0.01-29.3 0.98-29.3 2.51-29.3 4.05-29.3 5.8-29.3 7.55-29.3 9.09-29.3 10.63-29.3 11.61-29.3 12.6-29.3 12.6-29.3L12.6-29.3Q12.6-29.3 12.6-29.3 12.6-29.3 12.6-29.3L12.6-29.3Q12.6-29.3 12.6-29.3 12.6-29.3 12.6-29.3 12.6-29.3 12.6-29.3L12.6-29.3Q12.6-28.83 12.6-28.31 12.6-27.8 12.6-27.3L12.6-27.3Q12.48-27.3 11.78-27.3 11.08-27.3 10.06-27.3 9.05-27.3 8.01-27.3 6.98-27.3 6.16-27.3 5.35-27.3 5.05-27.3L5.05-27.3Q5.05-27.3 5.05-27.3 5.05-27.3 5.05-27.3 5.05-27.3 5.05-27.3 5.05-27.3 5.05-27.3L5.05-27.3Q4.98-27.3 4.55-26.93 4.13-26.55 3.53-25.98 2.93-25.4 2.35-24.81 1.78-24.23 1.39-23.8 1-23.38 1-23.3L1-23.3 1-15.35ZM-1-12.45L-1-12.45 1-12.45Q1-12.45 1-11.4 1-10.35 1-8.79 1-7.23 1-5.66 1-4.1 1-3.05 1-2 1-2L1-2Q1-2 1-2 1-2 1-2 1-2 1-2 1-2 1-2 1-2 1-2L1-2Q1-2 1-2 1-2 1-2L1-2Q1-2 1-2 1-2 1-2 1-2 1-2 1-2 1-2L1-2Q1-2 2.18-2 3.35-2 5.08-2 6.8-2 8.53-2 10.25-2 11.43-2 12.6-2 12.6-2L12.6-2Q12.6-1.53 12.6-1.01 12.6-0.5 12.6 0L12.6 0Q12.6 0 12.6 0 12.6 0 12.6 0 12.6 0 12.6 0L12.6 0Q12.6 0 12.6 0 12.6 0 12.6 0L12.6 0Q12.6 0 11.61 0 10.63 0 9.09 0 7.55 0 5.8 0 4.05 0 2.51 0 0.98 0-0.01 0-1 0-1 0L-1 0Q-1 0-1 0-1 0-1 0-1 0-1 0-1 0-1 0L-1 0Q-1 0-1-0.9-1-1.8-1-3.21-1-4.63-1-6.23-1-7.83-1-9.24-1-10.65-1-11.55-1-12.45-1-12.45ZM25.6-16.85L25.6-16.85 23.6-16.85Q23.6-16.85 23.6-17.9 23.6-18.95 23.6-20.51 23.6-22.08 23.6-23.64 23.6-25.2 23.6-26.25 23.6-27.3 23.6-27.3L23.6-27.3Q23.6-27.3 23.6-27.3 23.6-27.3 23.6-27.3 23.6-27.3 23.6-27.3 23.6-27.3 23.6-27.3 23.6-27.3 23.6-27.3L23.6-27.3Q23.6-27.3 23.6-27.3 23.6-27.3 23.6-27.3L23.6-27.3Q23.6-27.3 23.6-27.3 23.6-27.3 23.6-27.3 23.6-27.3 23.6-27.3 23.6-27.3 23.6-27.3L23.6-27.3Q23.6-27.3 22.43-27.3 21.25-27.3 19.53-27.3 17.8-27.3 16.07-27.3 14.35-27.3 13.18-27.3 12-27.3 12-27.3L12-27.3Q12-27.8 12-28.31 12-28.83 12-29.3L12-29.3Q12-29.3 12-29.3 12-29.3 12-29.3 12-29.3 12-29.3L12-29.3Q12-29.3 12-29.3 12-29.3 12-29.3L12-29.3Q12-29.3 12.99-29.3 13.98-29.3 15.51-29.3 17.05-29.3 18.8-29.3 20.55-29.3 22.09-29.3 23.63-29.3 24.61-29.3 25.6-29.3 25.6-29.3L25.6-29.3Q25.6-29.3 25.6-29.3 25.6-29.3 25.6-29.3 25.6-29.3 25.6-29.3 25.6-29.3 25.6-29.3L25.6-29.3Q25.6-29.3 25.6-28.4 25.6-27.5 25.6-26.09 25.6-24.68 25.6-23.08 25.6-21.48 25.6-20.06 25.6-18.65 25.6-17.75 25.6-16.85 25.6-16.85ZM23.6-24.35L25.6-24.35 25.6-5.85 23.6-5.85Q23.6-5.85 23.6-8.15 23.6-10.45 23.6-15.35L23.6-15.35Q23.6-15.35 23.6-15.48 23.6-15.6 23.6-15.6L23.6-15.6Q23.6-15.6 23.6-15.73 23.6-15.85 23.6-15.85L23.6-15.85Q23.6-20.4 23.6-22.38 23.6-24.35 23.6-24.35L23.6-24.35ZM1-4.9L-1-4.9-1-23.4 1-23.4Q1-23.4 1-21.11 1-18.82 1-13.9L1-13.9Q1-13.9 1-13.78 1-13.65 1-13.65L1-13.65Q1-13.65 1-13.53 1-13.4 1-13.4L1-13.4Q1-8.88 1-6.89 1-4.9 1-4.9L1-4.9ZM1-11.45L0.05-11.45 0.05-15.1 1-15.1Q1-15.1 1-14.86 1-14.63 1-14.39 1-14.15 1-14.15L1-14.15Q1-14.15 2.04-14 3.08-13.85 4.61-13.63 6.15-13.4 7.69-13.18 9.22-12.95 10.26-12.8 11.3-12.65 11.3-12.65L11.3-12.65Q11.3-12.65 11.29-12.54 11.28-12.43 11.24-12.2 11.2-11.98 11.15-11.65L11.15-11.65Q11.1-11.33 11.06-11.11 11.03-10.9 11.01-10.8 11-10.7 11-10.7L11-10.7Q11-10.7 9.99-10.85 8.97-11 7.49-11.21 6-11.43 4.51-11.64 3.03-11.85 2.01-12 1-12.15 1-12.15L1-12.15Q1-12.15 1-11.98 1-11.8 1-11.63 1-11.45 1-11.45L1-11.45ZM23.6-18.2L24.55-18.2 24.55-14.55 23.6-14.55Q23.6-14.55 23.6-14.79 23.6-15.03 23.6-15.26 23.6-15.5 23.6-15.5L23.6-15.5Q23.6-15.5 22.56-15.65 21.53-15.8 19.99-16.03 18.45-16.25 16.91-16.48 15.38-16.7 14.34-16.85 13.3-17 13.3-17L13.3-17Q13.3-17 13.31-17.11 13.33-17.23 13.36-17.45 13.4-17.68 13.45-18L13.45-18Q13.5-18.32 13.54-18.54 13.58-18.75 13.59-18.85 13.6-18.95 13.6-18.95L13.6-18.95Q13.6-18.95 14.61-18.8 15.63-18.65 17.11-18.44 18.6-18.23 20.09-18.01 21.58-17.8 22.59-17.65 23.6-17.5 23.6-17.5L23.6-17.5Q23.6-17.5 23.6-17.68 23.6-17.85 23.6-18.03 23.6-18.2 23.6-18.2L23.6-18.2Z" opacity="1" transform="matrix(1,0,0,1,0,0)" fill="#000000" class="wordmark-text-0" data-fill-palette-color="primary" id="text-0"></path></svg></g></svg></g></svg></g></svg></g><g></g></svg></g><defs></defs></svg><rect width="224.42047781569966" height="247.2" fill="none" stroke="none" visibility="hidden"></rect></g></svg></g></svg>